<?xml version="1.0" encoding="UTF-8"?><svg id="Foreground" xmlns="http://www.w3.org/2000/svg" viewBox="0 0 293.91 104.5"><defs><style>.cls-1,.cls-2{fill-rule:evenodd;}.cls-1,.cls-2,.cls-3,.cls-4,.cls-5{stroke-width:0px;}.cls-1,.cls-3{fill:#354248;}.cls-2,.cls-4{fill:#717f87;}.cls-5{fill:#c6183d;}</style></defs><path class="cls-1" d="m162.64,45.98c0,12.73-10.96,22.98-24.39,22.98l-14.1-.03V22.97l14.1.03c13.43,0,24.39,10.25,24.39,22.98Zm-24.39,16.39c10.16,0,17.8-7.66,17.8-16.39s-7.63-16.39-17.8-16.39h-7.09v32.78h7.09Zm128.96-39.33h26.7v6.41h-19.82v13.04h17.54l-2.94,6.41h-14.6v13.7h19.82v6.41h-26.7V23.04Zm-45.13,18.06l-5.04,27.91h-7.1l9.68-49.41,15.58,35.73,15.58-35.73,9.68,49.41h-7.1l-5.05-27.91-13.12,29.84-13.12-29.84Zm-38.23-5.46l-6.93,15.77h13.85l-6.93-15.77Zm-9.82,22.18l-5.09,11.19h-7.43l22.35-48.79,22.35,48.79h-7.43l-5.09-11.19h-19.64Z"/><path class="cls-2" d="m125,95.56h1.48v-5.58c.61.02.88.18,1.37.79,1.64,2.09,2.79,3.98,3.15,4.79h1.85s-2.32-3.49-2.84-4.19c-.25-.34-.67-.92-1.24-1.39h.18c1.96,0,3.28-1.35,3.28-3.38,0-1.31-.67-2.14-1.22-2.59-.59-.49-1.42-.79-3.11-.79h-2.88v12.35Zm2.92-11.11c.67,0,1.15.09,1.55.25.7.29,1.21,1.06,1.21,1.87s-.22,1.48-.63,1.85c-.47.43-1.13.63-2.23.63h-1.31v-4.61h1.42Z"/><polygon class="cls-2" points="139 95.56 145.93 95.56 145.93 94.29 140.49 94.29 140.49 89.77 144.72 89.77 144.72 88.49 140.49 88.49 140.49 84.44 145.55 84.44 145.75 83.22 139 83.22 139 95.56"/><path class="cls-2" d="m155.97,83.05c-2.99,0-5.18,2.7-5.18,6.37,0,1.84.43,3.51,1.48,4.7.95,1.08,2.27,1.64,3.6,1.64,1.22,0,2.45-.36,3.44-1.01l-.79-.99c-.79.56-1.49.79-2.41.79-1.4,0-2.68-.76-3.31-2.3-.29-.72-.4-1.42-.4-2.61,0-1.46.16-2.45.52-3.28.59-1.39,1.62-2.12,3.04-2.12.9,0,1.6.23,2.34.77l.79-.95c-.85-.65-1.93-1.01-3.11-1.01Z"/><path class="cls-2" d="m164.63,95.56h1.48v-5.58c.61.02.88.18,1.37.79,1.64,2.09,2.79,3.98,3.15,4.79h1.85s-2.32-3.49-2.84-4.19c-.25-.34-.67-.92-1.24-1.39h.18c1.96,0,3.28-1.35,3.28-3.38,0-1.31-.67-2.14-1.22-2.59-.59-.49-1.42-.79-3.11-.79h-2.88v12.35Zm2.92-11.11c.67,0,1.15.09,1.55.25.7.29,1.21,1.06,1.21,1.87s-.22,1.48-.63,1.85c-.47.43-1.13.63-2.23.63h-1.31v-4.61h1.42Z"/><path class="cls-2" d="m178.13,92.07c0,.54.04,1.33.36,1.93.67,1.22,1.75,1.78,3.65,1.78,1.49,0,2.48-.31,3.24-.95.74-.63.94-1.33.94-2.83v-8.78h-1.46v8.6c0,.83-.05,1.37-.47,1.93-.38.5-1.15.77-2.18.77-1.51,0-2.18-.67-2.41-1.21-.16-.38-.22-1.17-.22-1.78v-8.32h-1.46v8.86Z"/><rect class="cls-4" x="193.32" y="83.22" width="1.44" height="12.35"/><polygon class="cls-2" points="200.15 84.46 203.46 84.46 203.46 95.56 204.88 95.56 204.88 84.46 208.23 84.46 208.32 83.22 200.15 83.22 200.15 84.46"/><path class="cls-2" d="m212.75,95.56h1.42l.68-8.78c.05-.76.14-2.39.14-2.39,0,0,.22,1.03.61,2.41l2.45,8.77h1.26l2.65-9.22c.23-.81.49-1.94.49-1.94,0,0,.04,1.31.09,2.11l.72,9.05h1.48l-1.06-12.35h-2.18l-2.32,8.21c-.29,1.03-.45,2.02-.45,2.02,0,0-.14-.95-.49-2.16l-2.25-8.06h-2.16l-1.08,12.35Z"/><polygon class="cls-2" points="231.29 95.56 238.22 95.56 238.22 94.29 232.78 94.29 232.78 89.77 237.01 89.77 237.01 88.49 232.78 88.49 232.78 84.44 237.84 84.44 238.04 83.22 231.29 83.22 231.29 95.56"/><path class="cls-2" d="m244.23,95.56h1.53l-.07-7.16c-.02-1.6-.16-3.37-.16-3.37,0,0,.61,1.48,1.4,2.97l3.96,7.56h1.55v-12.35h-1.46l.05,6.71c.02,1.78.16,3.76.16,3.76,0,0-.5-1.37-1.15-2.59l-4.1-7.88h-1.71v12.35Z"/><polygon class="cls-2" points="257.82 84.46 261.13 84.46 261.13 95.56 262.55 95.56 262.55 84.46 265.9 84.46 265.99 83.22 257.82 83.22 257.82 84.46"/><path class="cls-5" d="m.03,3.81C.03,1.75,1.69.07,3.74.05l44.28-.05c30.28,0,55.28,23.15,55.28,52.25s-25,52.25-55.28,52.25l-44.3-.08c-2.06-.01-3.72-1.69-3.72-3.75,0-1.01.4-1.92,1.04-2.6l13.41-13.41h33.57c20.44,0,35.43-15.35,35.43-32.41s-14.99-32.41-35.43-32.41H14.51L1.15,6.49C.44,5.76.03,4.83.03,3.81Z"/><path class="cls-3" d="m45.62,53.64l-31.16,31.05V19.77l31.21,31.21c.32.34.51.8.51,1.3,0,.53-.21,1.02-.56,1.36Z"/></svg>